# xmcd CD database file
#
# Track frame offsets:
#	150
#	13243
#	24630
#	42043
#	50443
#	61248
#	71463
#	86020
#	96933
#	109590
#	125895
#	137068
#	156473
#	168113
#	188660
#	201910
#	217110
#	230748
#	246885
#	261150
#
# Disc length: 3698 seconds
#
# Revision: 0
# Processed by: cddbd v1.5.1PL0 Copyright (c) Steve Scherf et al.
# Submitted via: CDex 1.50beta9
#
DISCID=250e7014
DTITLE=RICHIE HALPIN - SEND !EM HOME SWEATING
DYEAR=1900
DGENRE=Country
TTITLE0=Send !Em Home Sweatin
TTITLE1=Rose Of Roscmmon
TTITLE2=Child Of God Pat Fortune
TTITLE3=Of Your Lonesome At Your Table
TTITLE4=Medley - Waltz Acc
TTITLE5=Old Account
TTITLE6=Waltz Around Limerick
TTITLE7=We'll Just Live Our Lives One Day At A Time
TTITLE8=Be Nice To The People
TTITLE9=Nlue Side Of Lonesome
TTITLE10=Lamlighting Time In The Valley
TTITLE11=The Marble City
TTITLE12=Cause I Love You 
TTITLE13=An Old Man's Wish
TTITLE14=One Man Band
TTITLE15=Ligthts Of Rosslare Harbour
TTITLE16=Leave Your Name And Number Gerry
TTITLE17=My Lady From Glenfarne
TTITLE18=I Know You're From Glenfarne
TTITLE19=Polka Set
EXTD=
EXTT0=
EXTT1=
EXTT2=
EXTT3=
EXTT4=
EXTT5=
EXTT6=
EXTT7=
EXTT8=
EXTT9=
EXTT10=
EXTT11=
EXTT12=
EXTT13=
EXTT14=
EXTT15=
EXTT16=
EXTT17=
EXTT18=
EXTT19=
PLAYORDER=
